HIERARCHY
ROOT root
{
	OFFSET 0.000000 0.000000 0.000000
	CHANNELS 6 Xposition Yposition Zposition Zrotation Yrotation Xrotation
	JOINT lhip
	{
		OFFSET 0.058581 -0.082280 -0.017664
		CHANNELS 3 Zrotation Yrotation Xrotation
		JOINT lknee
		{
			OFFSET 0.043451 -0.386469 0.008037
			CHANNELS 3 Zrotation Yrotation Xrotation
			JOINT lankle
			{
				OFFSET -0.014790 -0.426874 -0.037428
				CHANNELS 3 Zrotation Yrotation Xrotation
				JOINT ltoe
				{
					OFFSET 0.041054 -0.060286 0.122042
					CHANNELS 3 Zrotation Yrotation Xrotation
					End Site
					{
						OFFSET 0.000000 0.000000 0.000000
					}
				}
			}
		}
	}
	JOINT rhip
	{
		OFFSET -0.060310 -0.090513 -0.013543
		CHANNELS 3 Zrotation Yrotation Xrotation
		JOINT rknee
		{
			OFFSET -0.043257 -0.383688 -0.004843
			CHANNELS 3 Zrotation Yrotation Xrotation
			JOINT rankle
			{
				OFFSET 0.019056 -0.420046 -0.034562
				CHANNELS 3 Zrotation Yrotation Xrotation
				JOINT rtoe
				{
					OFFSET -0.034840 -0.062106 0.130323
					CHANNELS 3 Zrotation Yrotation Xrotation
					End Site
					{
						OFFSET 0.000000 0.000000 0.000000
					}
				}
			}
		}
	}
	JOINT lowerback
	{
		OFFSET 0.004439 0.124404 -0.038385
		CHANNELS 3 Zrotation Yrotation Xrotation
		JOINT upperback
		{
			OFFSET 0.004488 0.137956 0.026820
			CHANNELS 3 Zrotation Yrotation Xrotation
			JOINT chest
			{
				OFFSET -0.002265 0.056032 0.002855
				CHANNELS 3 Zrotation Yrotation Xrotation
				JOINT lowerneck
				{
					OFFSET -0.013390 0.211636 -0.033468
					CHANNELS 3 Zrotation Yrotation Xrotation
					JOINT upperneck
					{
						OFFSET 0.010113 0.088937 0.050410
						CHANNELS 3 Zrotation Yrotation Xrotation
						End Site
						{
							OFFSET 0.000000 0.000000 0.000000
						}
					}
				}
				JOINT lclavicle
				{
					OFFSET 0.071702 0.114000 -0.018898
					CHANNELS 3 Zrotation Yrotation Xrotation
					JOINT lshoulder
					{
						OFFSET 0.122921 0.045205 -0.019046
						CHANNELS 3 Zrotation Yrotation Xrotation
						JOINT lelbow
						{
							OFFSET 0.255332 -0.015649 -0.022946
							CHANNELS 3 Zrotation Yrotation Xrotation
							JOINT lwrist
							{
								OFFSET 0.265709 0.012698 -0.007375
								CHANNELS 3 Zrotation Yrotation Xrotation
								End Site
								{
									OFFSET 0.000000 0.000000 0.000000
								}
							}
						}
					}
				}
				JOINT rclavicle
				{
					OFFSET -0.082954 0.112472 -0.023707
					CHANNELS 3 Zrotation Yrotation Xrotation
					JOINT rshoulder
					{
						OFFSET -0.113228 0.046853 -0.008472
						CHANNELS 3 Zrotation Yrotation Xrotation
						JOINT relbow
						{
							OFFSET -0.260127 -0.014369 -0.031269
							CHANNELS 3 Zrotation Yrotation Xrotation
							JOINT rwrist
							{
								OFFSET -0.269108 0.006794 -0.006027
								CHANNELS 3 Zrotation Yrotation Xrotation
								End Site
								{
									OFFSET 0.000000 0.000000 0.000000
								}
							}
						}
					}
				}
			}
		}
	}
}
MOTION
Frames: 13
Frame Time: 0.033333
0.356866 0.180762 0.998848 60.482897 2.584631 90.716712 8.289962 11.686409 11.535484 -4.258649 8.674588 -5.910335 -0.909005 16.370917 -3.890707 0.000000 -0.000000 0.000000 -3.884673 4.550370 -7.873919 0.354625 15.077054 4.460330 5.929891 -0.867367 -1.502132 0.000000 -0.000000 0.000000 0.427302 -9.664652 -1.377721 -0.887351 -12.495095 1.055898 2.711814 -6.985718 2.895158 7.880499 -5.750282 14.960566 13.864261 25.495814 5.048529 2.949515 -20.598615 -12.585081 -28.383143 -36.541459 -17.544651 26.449536 -15.435599 -65.416010 23.965316 8.158090 -29.548191 -28.284666 11.612686 -13.417768 34.842009 32.016505 19.747593 -178.470140 54.380693 -177.150180 -3.438263 11.488748 -85.645477 
0.357106 0.180626 0.998826 60.537353 2.591280 90.757556 8.293194 11.678731 11.500490 -4.243088 8.652734 -5.914758 -0.910010 16.350578 -3.884401 0.000000 -0.000000 0.000000 -3.875031 4.547450 -7.881330 0.339612 15.037551 4.452404 5.917914 -0.874830 -1.529828 0.000000 -0.000000 0.000000 0.385105 -9.634607 -1.335416 -0.882726 -12.467776 1.024990 2.728865 -6.931114 2.825749 7.897891 -5.800288 14.911665 13.901577 25.467931 5.142990 2.998776 -20.650814 -12.554321 -28.405793 -36.599934 -17.563033 26.451879 -15.405732 -65.416254 23.953156 8.133077 -29.473836 -28.165120 11.583310 -13.449541 35.016528 31.903900 19.819827 -178.572751 54.420127 -177.246556 -3.211005 11.679030 -85.691064 
0.357409 0.180526 0.998731 60.558848 2.607893 90.778128 8.319725 11.667698 11.510484 -4.257191 8.649916 -5.941283 -0.920931 16.338541 -3.870532 0.000000 -0.000000 0.000000 -3.865608 4.564808 -7.880238 0.341118 14.981880 4.466162 5.925594 -0.862111 -1.532456 0.000000 -0.000000 0.000000 0.349601 -9.640512 -1.381834 -0.899786 -12.475047 1.144402 2.741787 -6.829573 2.815887 7.912601 -5.838142 14.832816 13.892270 25.397481 5.107479 3.042735 -20.711768 -12.479564 -28.299602 -36.619589 -17.625815 26.561241 -15.419616 -65.732596 23.984194 7.990874 -29.393425 -28.085353 11.592239 -13.436230 35.124836 31.803657 19.866916 -178.564363 54.382935 -177.307257 -3.059071 12.046867 -85.755723 
0.357644 0.180532 0.998677 60.560530 2.635884 90.810298 8.324463 11.666786 11.495004 -4.233665 8.642272 -5.958849 -0.909575 16.354890 -3.848760 0.000000 -0.000000 0.000000 -3.837658 4.569965 -7.916584 0.354717 15.023635 4.496531 5.896128 -0.929407 -1.536239 0.000000 -0.000000 0.000000 0.387511 -9.631742 -1.540373 -0.910309 -12.458218 1.268950 2.619690 -6.861808 2.923112 7.893787 -5.633517 14.782308 13.851838 25.281980 4.994786 3.021165 -20.726187 -12.510185 -28.089453 -36.564714 -17.688200 26.622402 -15.511547 -65.518283 24.051475 8.071214 -29.516250 -27.952113 11.784318 -13.332229 35.094015 31.845312 19.892939 -178.356418 54.337568 -176.953654 -3.393196 11.796368 -85.813883 
0.357941 0.180469 0.998562 60.589285 2.641974 90.836253 8.335160 11.681832 11.476672 -4.226514 8.634322 -5.947649 -0.927107 16.319850 -3.852106 0.000000 -0.000000 0.000000 -3.830096 4.567289 -7.913739 0.349621 15.027755 4.483275 5.848832 -0.956635 -1.544125 0.000000 -0.000000 0.000000 0.409456 -9.609628 -1.534260 -0.892150 -12.435714 1.282178 2.607962 -7.009854 2.860180 7.846979 -5.531551 14.750006 13.665275 25.314759 4.837536 2.908824 -20.657931 -12.502494 -27.941205 -36.435191 -17.785468 26.671049 -15.722629 -65.399846 23.781196 7.976641 -29.749325 -28.011320 11.955397 -13.296150 35.266834 31.974586 19.964354 -178.207203 54.424716 -176.703184 -3.539049 11.739882 -85.623243 
0.358112 0.180457 0.998516 60.596887 2.661513 90.855132 8.356540 11.702112 11.421207 -4.221342 8.643013 -5.854844 -0.914641 16.300714 -3.917210 0.000000 -0.000000 0.000000 -3.794561 4.569410 -7.957713 0.338601 15.003147 4.553485 5.819393 -0.958215 -1.571182 0.000000 -0.000000 0.000000 0.364320 -9.583384 -1.463728 -0.874537 -12.411597 1.255946 2.622921 -7.011277 2.796454 7.849750 -5.637377 14.675801 13.632438 25.179493 4.861648 2.869542 -20.761257 -12.417537 -27.814400 -36.387761 -17.828917 26.785530 -15.900068 -65.398211 23.833116 7.924130 -29.550582 -27.902769 12.133475 -13.300469 35.475058 32.016209 20.042232 -178.049258 54.667381 -176.675704 -3.414783 11.850169 -85.459797 
0.358270 0.180447 0.998505 60.605324 2.696145 90.940327 8.380109 11.682743 11.319596 -4.227430 8.619312 -5.801757 -0.905244 16.317836 -3.969905 0.000000 -0.000000 0.000000 -3.748716 4.578050 -8.075435 0.328751 15.054093 4.626381 5.824127 -1.012026 -1.593533 0.000000 -0.000000 0.000000 0.319548 -9.612069 -1.482388 -0.821006 -12.409916 1.154519 2.662392 -6.948742 2.824362 7.887762 -5.495864 14.446901 13.643350 25.152510 4.997360 2.946846 -20.836070 -12.303500 -27.826495 -36.348593 -17.802166 26.833008 -16.076951 -65.231668 24.066016 8.155961 -29.597442 -27.870164 12.316019 -13.299508 35.886381 32.152436 20.207031 -178.022912 55.098601 -176.609929 -3.389382 11.636149 -85.291079 
0.359088 0.180457 0.998937 60.602556 2.692253 91.090436 8.351640 11.785103 11.189430 -4.218749 8.309157 -5.710953 -0.840358 16.574769 -4.051202 0.000000 -0.000000 0.000000 -3.739853 4.387441 -8.174679 0.311513 15.269476 4.628728 5.911723 -1.069054 -1.654240 0.000000 -0.000000 0.000000 0.441315 -9.816489 -1.336073 -0.969815 -12.382482 0.290513 2.835753 -6.765490 2.983692 7.087485 -5.762034 14.657787 14.084667 25.658917 5.128579 3.371262 -20.696268 -12.010179 -29.650921 -35.908526 -16.522697 28.758029 -18.463668 -65.616807 27.554866 11.141855 -30.047521 -28.517407 12.557934 -13.271474 36.581248 31.736219 20.346646 -178.760302 55.082907 -177.287294 -4.383019 10.046387 -85.099961 
0.360582 0.180671 1.000689 60.653162 2.627463 91.698863 8.024714 11.461950 10.718343 -4.202383 8.448830 -5.787237 -0.677969 16.854316 -4.043345 0.000000 -0.000000 0.000000 -3.887683 4.327984 -8.589397 0.178157 15.061277 4.418288 6.195065 -0.773864 -1.422292 0.000000 -0.000000 0.000000 0.722524 -10.047435 -1.101309 -1.199376 -11.567570 -2.096726 3.356401 -6.979211 3.566603 5.248774 -7.096810 15.558684 14.357689 26.682650 4.826511 3.618024 -19.013814 -10.982082 -36.743291 -35.758895 -11.348125 38.645626 -26.576851 -69.300573 30.868317 14.736527 -30.422134 -29.728811 11.803646 -12.620145 35.325068 30.484871 20.166897 -179.750529 52.165696 -179.291427 -6.125451 7.395126 -85.962229 
0.362645 0.180927 1.002665 60.834604 2.634718 92.314258 7.804695 10.778623 10.527203 -4.319374 9.357272 -6.358943 -0.730211 16.416340 -3.585720 0.000000 -0.000000 0.000000 -4.063444 4.362458 -8.800501 0.024388 14.196889 3.923762 6.652837 -0.094553 -0.961733 0.000000 -0.000000 0.000000 1.140895 -9.928651 -1.990820 -1.278123 -10.606864 -2.168678 3.468784 -6.974671 3.355371 3.913791 -7.848271 15.848440 14.299693 26.678451 4.190585 3.682008 -16.303693 -10.033408 -44.245595 -36.905355 -6.880854 48.670021 -34.004358 -72.669487 25.097185 11.258715 -35.966961 -30.327512 9.110319 -11.481092 33.005252 28.224638 18.521718 -179.579882 48.624086 -178.495747 -3.807728 11.330376 -87.192694 
0.365665 0.180508 1.004427 61.315247 2.623031 92.596997 7.816145 10.794276 10.752257 -4.351246 9.115755 -7.009005 -0.794613 16.133148 -3.008962 0.000000 -0.000000 0.000000 -4.258103 3.925886 -8.469987 0.178880 14.118594 3.305957 6.858476 -0.176185 -0.824268 0.000000 -0.000000 0.000000 1.736305 -9.454831 -3.175684 -1.271131 -10.139276 -2.810234 3.107065 -7.035355 3.772607 2.782344 -7.908768 16.228818 13.926806 26.512220 4.461092 3.913019 -15.429808 -10.974571 -46.358787 -38.479345 -5.488937 44.905110 -33.726362 -69.592015 25.864117 12.747170 -35.830209 -30.385227 7.267829 -11.364850 30.690455 26.918201 17.367178 -178.874257 46.584359 -177.301713 -4.221226 10.924842 -87.894965 
0.368565 0.178572 1.005331 62.106804 2.677563 92.323814 8.201290 11.082006 11.272995 -4.275415 8.340838 -7.169600 -1.140316 15.865910 -2.736102 0.000000 -0.000000 0.000000 -4.248487 3.630102 -7.466064 0.290578 14.123262 2.745820 6.718348 -0.559319 -0.894054 0.000000 -0.000000 0.000000 2.019222 -9.290238 -3.674470 -1.267834 -10.611571 -3.573635 2.798185 -7.575867 3.775447 2.953947 -7.379375 16.262697 13.464360 25.776273 5.931129 4.167507 -16.075001 -10.867382 -44.609263 -38.381189 -6.777804 39.488563 -30.984144 -65.056389 27.392717 13.796877 -34.970879 -30.981222 7.295385 -11.887962 31.737492 28.437734 17.157136 -178.960861 48.538645 -176.102434 -5.788725 8.209037 -87.623361 
0.370130 0.176080 1.005048 62.704076 2.805266 91.871203 8.624923 11.139585 11.728382 -4.187420 8.054645 -6.995749 -1.325156 15.583059 -2.880647 0.000000 -0.000000 0.000000 -4.092994 3.678322 -6.626862 0.403117 13.741644 2.644813 6.414509 -0.576080 -1.114195 0.000000 -0.000000 0.000000 1.680318 -9.513840 -3.575355 -1.270076 -11.219972 -3.546577 2.948558 -7.916975 3.437408 3.776641 -7.322053 15.904550 13.533488 24.951751 6.105466 4.081725 -16.654745 -10.365536 -44.003163 -38.176655 -7.294726 39.492495 -29.318944 -65.234116 27.751333 13.998438 -34.286507 -31.292495 7.871272 -12.082379 34.569203 29.853111 18.021105 -179.189687 50.896213 -176.037621 -6.424197 6.821647 -87.073873 
